<?xml version="1.0" encoding="utf-8"?>
<!-- Generator: Adobe Illustrator 23.1.1, SVG Export Plug-In . SVG Version: 6.00 Build 0)  -->
<svg version="1.1" id="Layer_1" xmlns="http://www.w3.org/2000/svg" xmlns:xlink="http://www.w3.org/1999/xlink" x="0px" y="0px"
	 viewBox="0 0 581.81 71.61" style="enable-background:new 0 0 581.81 71.61;" xml:space="preserve">
<style type="text/css">
	.st0{fill:#D92028;}
	.st1{fill:none;}
	.st2{fill:#680F2A;stroke:#680F2A;stroke-miterlimit:10;}
	.st3{fill:#680F2A;stroke:#680F2A;stroke-width:2.0366;stroke-miterlimit:10;}
	.st4{fill:#FFFFFF;}
</style>
<rect x="418.25" y="11.01" class="st0" width="161.2" height="45.37"/>
<g>
	<rect x="417.35" y="11.72" class="st1" width="161.2" height="45.37"/>
	<path class="st2" d="M33.21,48.27c0,7.16-2.58,11.09-8.27,11.09c-4.74,0-8.02-3.13-8.02-11.09V3.35H3.9v45.82
		c0,12.17,6.9,19.86,21.21,19.86c15.87,0,21.12-10.2,21.12-19.86V3.35H33.21V48.27z"/>
	<path class="st3" d="M33.21,48.27c0,7.16-2.58,11.09-8.27,11.09c-4.74,0-8.02-3.13-8.02-11.09V3.35H3.9v45.82
		c0,12.17,6.9,19.86,21.21,19.86c15.87,0,21.12-10.2,21.12-19.86V3.35H33.21V48.27z"/>
</g>
<polygon class="st2" points="92.09,48.09 91.92,48.09 75.37,3.35 57.78,3.35 57.78,67.95 69.94,67.95 69.94,20.71 70.11,20.71 
	87.09,67.95 104.25,67.95 104.25,3.35 92.09,3.35 "/>
<g>
	<polygon class="st3" points="92.09,48.09 91.92,48.09 75.37,3.35 57.78,3.35 57.78,67.95 69.94,67.95 69.94,20.71 70.11,20.71 
		87.09,67.95 104.25,67.95 104.25,3.35 92.09,3.35 	"/>
</g>
<rect x="116.05" y="3.35" class="st2" width="13.02" height="64.61"/>
<g>
	<rect x="116.05" y="3.35" class="st3" width="13.02" height="64.61"/>
</g>
<polygon class="st2" points="159.25,50.32 159.08,50.32 149.42,3.35 135.88,3.35 151.23,67.95 166.49,67.95 182.96,3.35 
	170.11,3.35 "/>
<g>
	<polygon class="st3" points="159.25,50.32 159.08,50.32 149.42,3.35 135.88,3.35 151.23,67.95 166.49,67.95 182.96,3.35 
		170.11,3.35 	"/>
</g>
<polygon class="st2" points="202.69,39.14 222.01,39.14 222.01,29.21 202.69,29.21 202.69,13.28 223.64,13.28 223.64,3.35 
	189.67,3.35 189.67,67.95 224.33,67.95 224.33,58.02 202.69,58.02 "/>
<g>
	<polygon class="st3" points="202.69,39.14 222.01,39.14 222.01,29.21 202.69,29.21 202.69,13.28 223.64,13.28 223.64,3.35 
		189.67,3.35 189.67,67.95 224.33,67.95 224.33,58.02 202.69,58.02 	"/>
	<path class="st2" d="M252.18,31.26h-5.78V13.28h5.78c4.13,0,6.64,2.33,6.64,8.5C258.81,25.89,257.35,31.26,252.18,31.26
		 M260.45,36.27V36.1c8.45-1.43,11.56-7.6,11.56-15.84c0-11.01-5.69-16.91-14.57-16.91h-24.05v64.61h13.02V41.2h3.36
		c10,0,9.31,6.53,9.31,14.23c0,4.21-0.34,8.59,1.38,12.53h12.76c-1.21-2.68-1.47-14.86-1.47-18.97
		C271.75,37.35,263.3,36.64,260.45,36.27"/>
	<path class="st3" d="M252.18,31.26h-5.78V13.28h5.78c4.13,0,6.64,2.33,6.64,8.5C258.81,25.89,257.35,31.26,252.18,31.26z
		 M260.45,36.27V36.1c8.45-1.43,11.56-7.6,11.56-15.84c0-11.01-5.69-16.91-14.57-16.91h-24.05v64.61h13.02V41.2h3.36
		c10,0,9.31,6.53,9.31,14.23c0,4.21-0.34,8.59,1.38,12.53h12.76c-1.21-2.68-1.47-14.86-1.47-18.97
		C271.75,37.35,263.3,36.64,260.45,36.27z"/>
	<path class="st2" d="M294.85,19.63c0-4.4,2.5-6.78,6.72-6.78c5.26,0,6.03,4.84,6.03,9.6h12.67c0.86-13.3-5.43-19.11-18.1-19.11
		c-15.87,0-20.52,7.92-20.52,17.88c0,18.93,26.21,19.63,26.21,31.08c0,4.31-2.15,7.22-6.55,7.22c-7.15,0-7.42-5.1-7.42-11.18h-13.02
		c-0.69,11.01,2.33,20.69,18.45,20.69c9.91,0,21.72-1.94,21.72-18.4C321.06,30.64,294.85,31.69,294.85,19.63"/>
	<path class="st3" d="M294.85,19.63c0-4.4,2.5-6.78,6.72-6.78c5.26,0,6.03,4.84,6.03,9.6h12.67c0.86-13.3-5.43-19.11-18.1-19.11
		c-15.87,0-20.52,7.92-20.52,17.88c0,18.93,26.21,19.63,26.21,31.08c0,4.31-2.15,7.22-6.55,7.22c-7.15,0-7.42-5.1-7.42-11.18h-13.02
		c-0.69,11.01,2.33,20.69,18.45,20.69c9.91,0,21.72-1.94,21.72-18.4C321.06,30.64,294.85,31.69,294.85,19.63z"/>
</g>
<path class="st2" d="M345.45,43.7l5.95-27.92h0.17l6.29,27.92H345.45z M343.72,3.35l-17.24,64.61h12.84l3.53-14.32h17.76l3.45,14.32
	h13.71l-16.9-64.61H343.72z"/>
<g>
	<path class="st3" d="M345.45,43.7l5.95-27.92h0.17l6.29,27.92H345.45z M343.72,3.35l-17.24,64.61h12.84l3.53-14.32h17.76
		l3.45,14.32h13.71l-16.9-64.61H343.72z"/>
</g>
<polygon class="st2" points="397.86,57.22 397.86,3.35 384.85,3.35 384.85,67.95 417.35,67.95 417.35,57.22 "/>
<g>
	<polygon class="st3" points="397.86,57.22 397.86,3.35 384.85,3.35 384.85,67.95 417.35,67.95 417.35,57.22 	"/>
	<path class="st4" d="M429.77,39.77c1.29,1.22,3.25,2.38,5.35,2.38c1.22,0,1.96-0.38,2.34-0.81c0.35-0.35,0.59-0.87,0.59-1.47
		c0-0.45-0.18-0.98-0.66-1.4c-0.59-0.53-1.5-0.77-3-1.22l-1.57-0.49c-0.98-0.31-2.41-0.84-3.35-1.88c-1.19-1.3-1.33-2.94-1.33-4.13
		c0-2.87,1.12-4.61,2.13-5.63c1.19-1.19,3.14-2.2,5.98-2.2c2.31,0,5,0.73,7.2,1.89l-2.41,4.72c-1.82-1.44-3.18-1.57-3.99-1.57
		c-0.59,0-1.4,0.14-1.99,0.7c-0.35,0.35-0.59,0.73-0.59,1.26c0,0.42,0.07,0.74,0.31,1.05c0.18,0.21,0.59,0.63,2.03,1.04l1.85,0.56
		c1.47,0.45,3.01,0.98,4.23,2.31c1.19,1.25,1.5,2.55,1.5,4.16c0,2.13-0.53,4.19-2.2,5.87c-1.99,1.99-4.4,2.37-6.88,2.37
		c-1.47,0-2.87-0.14-4.58-0.77c-0.38-0.14-1.85-0.7-3.53-1.86L429.77,39.77z"/>
</g>
<polygon class="st4" points="458.77,27.88 458.77,46.05 452.72,46.05 452.72,27.88 447.76,27.88 447.76,22.74 463.73,22.74 
	463.73,27.88 "/>
<g>
	<path class="st4" d="M473.34,33.19h1.15c0.91,0,2.2-0.24,2.93-0.94c0.45-0.45,0.77-1.22,0.77-1.96c0-0.7-0.28-1.47-0.8-1.96
		c-0.56-0.56-1.57-0.91-2.9-0.91h-1.15V33.19z M476.73,22.74c1.75,0,3.98,0.28,5.7,2.06c1.33,1.36,1.99,3.39,1.99,5.24
		c0,1.99-0.7,3.74-1.85,4.86c-0.91,0.87-2.13,1.4-3.22,1.6l7.3,9.54h-7.51l-5.8-8.94v8.94h-6.05V22.74H476.73z"/>
</g>
<polygon class="st4" points="503.33,27.88 496.13,27.88 496.13,31.75 502.94,31.75 502.94,36.89 496.13,36.89 496.13,40.91 
	503.33,40.91 503.33,46.05 490.08,46.05 490.08,22.74 503.33,22.74 "/>
<polygon class="st4" points="517.72,27.88 517.72,46.05 511.68,46.05 511.68,27.88 506.72,27.88 506.72,22.74 522.69,22.74 
	522.69,27.88 "/>
<g>
	<path class="st4" d="M542.99,45.42c-2.41,0.87-3.74,1.15-5.24,1.15c-4.05,0-7.1-1.6-9.02-3.49c-2.27-2.27-3.53-5.45-3.53-8.49
		c0-3.32,1.43-6.47,3.53-8.6c2.06-2.1,5.17-3.64,8.81-3.64c1.12,0,2.94,0.18,5.45,1.19v7.23c-1.96-2.41-4.26-2.55-5.28-2.55
		c-1.75,0-3.08,0.53-4.19,1.54c-1.43,1.32-2.03,3.14-2.03,4.78c0,1.61,0.66,3.39,1.89,4.55c1.01,0.94,2.62,1.6,4.33,1.6
		c0.91,0,3.15-0.1,5.28-2.44V45.42z"/>
</g>
<polygon class="st4" points="553.75,31.44 562.49,31.44 562.49,22.74 568.57,22.74 568.57,46.05 562.49,46.05 562.49,36.61 
	553.75,36.61 553.75,46.05 547.71,46.05 547.71,22.74 553.75,22.74 "/>
</svg>
